<svg width="173" height="54" viewBox="0 0 173 54" fill="none" xmlns="http://www.w3.org/2000/svg">
<path d="M4.73599 26.088C4.73599 31.336 5.43999 38.824 14.208 38.824C17.536 38.824 21.568 35.112 21.696 32.04C21.952 21.352 1.02399 28.84 1.02399 11.368C1.02399 2.664 8.12799 0.616004 16.32 0.808006C21.44 0.872005 26.688 1.576 30.144 3.048L27.072 15.208H25.856C25.856 10.216 25.664 2.984 16.384 2.984C12.928 2.984 9.21599 6.184 9.21599 9.12801C9.21599 19.752 28.928 13.096 28.992 28.904C28.992 37.864 22.656 41.192 14.592 41.192C9.34399 41.192 4.15999 39.848 0.575989 38.312L3.51999 26.088H4.73599Z" fill="#121212"/>
<path d="M42.779 11.368C42.779 16.104 44.379 11.304 50.651 11.304C64.539 11.304 63.707 43.304 43.611 41.128C41.243 40.872 42.523 49.256 45.019 51.88C45.019 52.264 45.019 52.776 45.019 53.096C40.539 53.096 36.059 53.096 31.643 53.096C31.643 52.776 31.643 52.264 31.643 51.88C35.419 47.848 35.611 14.568 31.451 12.584C31.451 11.88 31.451 12.072 31.451 11.368C35.227 11.368 39.003 11.368 42.779 11.368ZM45.851 15.656C38.491 15.656 43.483 39.08 43.611 39.08C52.891 39.08 53.339 15.656 45.851 15.656Z" fill="#121212"/>
<path d="M72.398 0.872005C72.398 8.74401 72.078 38.184 74.894 39.784L74.958 41H61.39L61.326 39.784C65.422 36.2 65.486 5.22401 61.326 2.088V0.872005H72.398Z" fill="#121212"/>
<path d="M108.713 36.456L109.673 38.44C102.953 41.64 91.305 43.624 91.369 33.128L91.433 13.8H88.937V12.584C92.649 10.408 96.745 2.79201 89.321 3.75201C85.673 4.2 83.305 7.52801 84.265 9.83201C86.185 10.28 87.849 11.816 87.849 14.376C87.849 20.776 77.353 20.648 78.121 13.288C78.441 10.216 80.937 6.63201 83.497 4.39201C88.105 0.488006 94.633 2.664 100.009 2.664V11.304H108.009V13.8H100.009L99.945 34.664C99.945 37.352 101.097 38.312 102.697 38.312C104.617 38.312 106.985 37.16 108.713 36.456ZM89.769 39.784L89.833 41H76.265L76.201 39.784C80.425 35.496 80.425 26.088 76.201 21.8V20.584H87.337C87.337 27.816 87.209 37.224 89.769 39.784Z" fill="#121212"/>
<path d="M127.95 36.776L128.91 38.76C122.19 41.96 110.542 43.944 110.606 33.448L110.67 13.8H108.238V12.584L114.702 2.664H119.246V11.304H128.078V13.8H119.246L119.182 34.984C119.182 37.672 120.334 38.632 121.934 38.632C123.854 38.632 126.286 37.544 127.95 36.776Z" fill="#121212"/>
<path d="M140.96 0.872005C140.96 8.74401 140.64 38.184 143.456 39.784L143.52 41H129.952L129.888 39.784C133.984 36.2 134.048 5.22401 129.888 2.088V0.872005H140.96Z" fill="#121212"/>
<path d="M170.811 31.528L172.027 32.424C167.355 45.288 144.763 44.392 144.763 27.816C144.763 19.496 150.203 11.304 160.123 11.304C171.771 11.304 172.091 22.248 172.091 27.112H152.763C153.211 34.408 167.483 39.336 170.811 31.528ZM152.763 24.936C154.747 24.936 158.267 24.872 160.955 24.424C169.595 23.08 164.411 13.48 158.203 13.48C155.515 13.48 152.763 17.384 152.763 24.936Z" fill="#121212"/>
</svg>
