<svg xmlns="http://www.w3.org/2000/svg" width="28" height="29" viewBox="0 0 28 29" fill="none">
  <path d="M14.0173 0.838867C15.0571 0.850852 16.0928 0.970986 17.1077 1.19734C17.5507 1.29615 17.8821 1.66551 17.9324 2.11664L18.1735 4.27968C18.2827 5.27284 19.1213 6.02506 20.1209 6.02611C20.3896 6.02653 20.6554 5.97057 20.9037 5.86071L22.8879 4.98908C23.3006 4.80779 23.7828 4.90663 24.0908 5.23566C25.5247 6.76711 26.5926 8.60383 27.2142 10.6076C27.3483 11.0397 27.194 11.5092 26.8299 11.7777L25.0711 13.0741C24.5693 13.4427 24.2731 14.028 24.2731 14.6507C24.2731 15.2731 24.5693 15.8585 25.0722 16.228L26.8325 17.5248C27.1967 17.7931 27.3511 18.2627 27.2171 18.695C26.5957 20.6984 25.5284 22.535 24.0953 24.0667C23.7876 24.3956 23.3058 24.4948 22.8931 24.3139L20.9009 23.4411C20.3308 23.1916 19.6763 23.2282 19.1375 23.5395C18.5989 23.8508 18.2405 24.3997 18.1721 25.0181L17.9325 27.1809C17.8831 27.6269 17.559 27.9938 17.1223 28.0977C15.0704 28.5858 12.9325 28.5858 10.8805 28.0977C10.444 27.9938 10.1198 27.6269 10.0704 27.1809L9.83126 25.0214C9.76101 24.4041 9.40198 23.8569 8.86376 23.5466C8.32556 23.2364 7.67203 23.2 7.10395 23.448L5.11123 24.321C4.69848 24.5019 4.21654 24.4027 3.90877 24.0735C2.47488 22.5401 1.40752 20.7012 0.787035 18.6957C0.653387 18.2637 0.807804 17.7944 1.17187 17.5262L2.93326 16.2285C3.43496 15.8599 3.73125 15.2746 3.73125 14.6521C3.73125 14.0295 3.43495 13.4441 2.93259 13.075L1.17231 11.7796C0.807718 11.5113 0.65316 11.0414 0.787276 10.609C1.40884 8.60525 2.47675 6.76852 3.91069 5.23708C4.21875 4.90804 4.70092 4.8092 5.11359 4.99049L7.09746 5.86197C7.6683 6.11249 8.32455 6.07466 8.86568 5.75851C9.40446 5.446 9.76316 4.89651 9.83241 4.27802L10.0733 2.11664C10.1237 1.66528 10.4553 1.2958 10.8986 1.1972C11.9148 0.971212 12.9517 0.851121 14.0173 0.838867ZM13.9996 10.4013C11.6523 10.4013 9.74958 12.3041 9.74958 14.6514C9.74958 16.9985 11.6523 18.9014 13.9996 18.9014C16.3467 18.9014 18.2496 16.9985 18.2496 14.6514C18.2496 12.3041 16.3467 10.4013 13.9996 10.4013Z" fill="#121212"/>
</svg>