<svg width="36" height="36" viewBox="0 0 36 36" fill="none" xmlns="http://www.w3.org/2000/svg">
<g filter="url(#filter0_d_72_524)">
<path d="M18.0173 0.1875C19.0571 0.199485 20.0928 0.319618 21.1077 0.545973C21.5507 0.644786 21.8821 1.01414 21.9324 1.46528L22.1735 3.62831C22.2827 4.62147 23.1213 5.37369 24.1209 5.37474C24.3896 5.37516 24.6554 5.31921 24.9037 5.20934L26.8879 4.33771C27.3006 4.15642 27.7828 4.25526 28.0908 4.5843C29.5247 6.11574 30.5926 7.95246 31.2142 9.95624C31.3483 10.3883 31.194 10.8579 30.8299 11.1263L29.0711 12.4227C28.5693 12.7913 28.2731 13.3767 28.2731 13.9993C28.2731 14.6218 28.5693 15.2071 29.0722 15.5766L30.8325 16.8734C31.1967 17.1417 31.3511 17.6114 31.2171 18.0436C30.5957 20.047 29.5284 21.8836 28.0953 23.4153C27.7876 23.7443 27.3058 23.8434 26.8931 23.6625L24.9009 22.7897C24.3308 22.5402 23.6763 22.5768 23.1375 22.8882C22.5989 23.1994 22.2405 23.7484 22.1721 24.3667L21.9325 26.5296C21.8831 26.9755 21.559 27.3425 21.1223 27.4463C19.0704 27.9345 16.9325 27.9345 14.8805 27.4463C14.444 27.3425 14.1198 26.9755 14.0704 26.5296L13.8313 24.37C13.761 23.7528 13.402 23.2055 12.8638 22.8953C12.3256 22.585 11.672 22.5486 11.104 22.7967L9.11123 23.6696C8.69848 23.8505 8.21654 23.7513 7.90877 23.4221C6.47488 21.8887 5.40752 20.0499 4.78704 18.0443C4.65339 17.6124 4.8078 17.143 5.17187 16.8748L6.93326 15.5772C7.43496 15.2086 7.73125 14.6232 7.73125 14.0007C7.73125 13.3781 7.43495 12.7927 6.93259 12.4237L5.17231 11.1282C4.80772 10.8599 4.65316 10.39 4.78728 9.95766C5.40884 7.95388 6.47675 6.11716 7.91069 4.58571C8.21875 4.25668 8.70092 4.15784 9.11359 4.33913L11.0975 5.2106C11.6683 5.46113 12.3246 5.42329 12.8657 5.10714C13.4045 4.79463 13.7632 4.24515 13.8324 3.62666L14.0733 1.46528C14.1237 1.01391 14.4553 0.644432 14.8986 0.545832C15.9148 0.319845 16.9517 0.199754 18.0173 0.1875ZM17.9996 9.74993C15.6523 9.74993 13.7496 11.6527 13.7496 14C13.7496 16.3471 15.6523 18.25 17.9996 18.25C20.3467 18.25 22.2496 16.3471 22.2496 14C22.2496 11.6527 20.3467 9.74993 17.9996 9.74993Z" fill="#121212"/>
</g>
<defs>
<filter id="filter0_d_72_524" x="0.739502" y="0.1875" width="34.5253" height="35.6249" filterUnits="userSpaceOnUse" color-interpolation-filters="sRGB">
<feFlood flood-opacity="0" result="BackgroundImageFix"/>
<feColorMatrix in="SourceAlpha" type="matrix" values="0 0 0 0 0 0 0 0 0 0 0 0 0 0 0 0 0 0 127 0" result="hardAlpha"/>
<feOffset dy="4"/>
<feGaussianBlur stdDeviation="2"/>
<feComposite in2="hardAlpha" operator="out"/>
<feColorMatrix type="matrix" values="0 0 0 0 0 0 0 0 0 0 0 0 0 0 0 0 0 0 0.15 0"/>
<feBlend mode="normal" in2="BackgroundImageFix" result="effect1_dropShadow_72_524"/>
<feBlend mode="normal" in="SourceGraphic" in2="effect1_dropShadow_72_524" result="shape"/>
</filter>
</defs>
</svg>
